<?xml version="1.0" encoding="utf-8"?>
<!-- Generator: Adobe Illustrator 16.0.0, SVG Export Plug-In . SVG Version: 6.00 Build 0)  -->
<!DOCTYPE svg PUBLIC "-//W3C//DTD SVG 1.1//EN" "http://www.w3.org/Graphics/SVG/1.1/DTD/svg11.dtd">
<svg version="1.1" id="Layer_1" xmlns="http://www.w3.org/2000/svg" xmlns:xlink="http://www.w3.org/1999/xlink" x="0px" y="0px"
	 width="1568px" height="1400px" viewBox="0 0 1568 1400" enable-background="new 0 0 1568 1400" xml:space="preserve">
<g>
	<g>
		<g>
			<rect fill="#D1F7FF" width="1568" height="1400"/>
		</g>
	</g>
	<g>
		<polygon fill="#B7D9E0" points="69.1,1031.9 321.5,1022.3 503.5,1027.1 697.9,1018.3 883.7,1025.1 1067.8,1012.6 1269.7,1022.3 
			1471.4,1012.6 1450,972.7 513.1,967.5 254,977.8 		"/>
	</g>
	<g>
		<g>
			<path fill="#3D8AB5" d="M356,1140.1h4.5l59.6,87.5v-87.5h4.4v95.1h-4.4l-59.8-87.4v87.4H356V1140.1z"/>
		</g>
		<g>
			<path fill="#3D8AB5" d="M471.2,1140.1h5l36.1,95.1H508l-12.3-32.4h-44.3l-12.4,32.4h-4.4L471.2,1140.1z M494.1,1198.8l-20.4-53.5
				l-20.8,53.5H494.1z"/>
		</g>
		<g>
			<path fill="#3D8AB5" d="M508.5,1140.1h4.5l30.5,88.6l30.4-88.6h4.6l-33,95.1h-4.2L508.5,1140.1z"/>
		</g>
		<g>
			<path fill="#3D8AB5" d="M589.7,1140.1h4.4v95.1h-4.4V1140.1z"/>
		</g>
		<g>
			<path fill="#3D8AB5" d="M653.7,1142c-12.3,0-21.6,4.7-28.2,14.1c-5.6,8.1-8.5,18.6-8.5,31.6c0,13,2.8,23.4,8.5,31.5
				c6.5,9.4,15.9,14.1,28.2,14.1c10.8,0,19.2-3.3,25.2-9.8c5.9-6.3,8.9-14.8,8.9-25.8v-4.1h-31.3v-4H692c0.1,0.9,0.1,1.7,0.1,2.5
				c0,0.8,0,1.6,0,2.4c0,20.2-6.9,33.2-20.8,39.1c-5.6,2.3-11.5,3.4-17.7,3.4c-13.7,0-24.2-4.9-31.5-14.8
				c-6.5-8.9-9.8-20.4-9.8-34.6c0-14.3,3.2-25.8,9.6-34.6c7.2-10,17.8-15.1,31.6-15.1c8.5,0,15.9,1.8,22.1,5.4
				c6.7,4,11.2,9.8,13.6,17.6l-4.1,2C681,1149,670.5,1142,653.7,1142z"/>
		</g>
		<g>
			<path fill="#3D8AB5" d="M735.2,1140.1h5l36.1,95.1H772l-12.3-32.4h-44.3l-12.4,32.4h-4.4L735.2,1140.1z M758.1,1198.8l-20.4-53.5
				l-20.8,53.5H758.1z"/>
		</g>
		<g>
			<path fill="#3D8AB5" d="M802.1,1144.2h-29.6v-4.1h63.7v4.1h-29.6v91h-4.5V1144.2z"/>
		</g>
		<g>
			<path fill="#3D8AB5" d="M849.2,1140.1h4.4v95.1h-4.4V1140.1z"/>
		</g>
		<g>
			<path fill="#3D8AB5" d="M881.8,1152.8c7.4-9.9,18.1-14.8,32.1-14.8c14.1,0,24.9,4.9,32.3,14.7c6.6,8.9,9.9,20.6,9.9,35
				c0,14.5-3.3,26.2-9.9,34.9c-7.4,9.7-18.2,14.5-32.3,14.5c-14.1,0-24.8-4.8-32.1-14.5c-6.6-8.7-9.9-20.4-9.9-34.9
				C871.9,1173.4,875.2,1161.7,881.8,1152.8z M885.2,1219.6c6.5,9.2,16.1,13.8,28.8,13.8c12.8,0,22.4-4.6,29-13.8
				c5.7-8,8.6-18.6,8.6-31.9c0-13.1-2.9-23.8-8.7-31.9c-6.6-9.3-16.2-13.9-28.8-13.9c-12.6,0-22.2,4.6-28.8,13.9
				c-5.7,8.1-8.6,18.7-8.6,31.9C876.6,1200.9,879.4,1211.5,885.2,1219.6z"/>
		</g>
		<g>
			<path fill="#3D8AB5" d="M973.9,1140.1h4.5l59.6,87.5v-87.5h4.4v95.1h-4.4l-59.8-87.4v87.4h-4.4V1140.1z"/>
		</g>
		<g>
			<path fill="#F5776A" d="M1098.4,1140.1h6.3l34.6,66.9l33.3-66.9h6.2v95.1h-4v-89.5l-34.4,66.8h-2.6l-35.6-66.8v89.5h-4V1140.1z"
				/>
		</g>
		<g>
			<path fill="#F5776A" d="M1225.7,1140.1h5l36.1,95.1h-4.4l-12.3-32.4h-44.3l-12.4,32.4h-4.4L1225.7,1140.1z M1248.6,1198.8
				l-20.4-53.5l-20.8,53.5H1248.6z"/>
		</g>
		<g>
			<path fill="#F5776A" d="M1336.6,1165.3c0,7.7-2.4,13.9-7.1,18.8c-3.2,3.2-7.4,5.3-12.8,6.3c-3.1,0.6-8,0.9-14.7,0.9h-21v43.9
				h-4.5v-95.1h25.9C1325.2,1140.1,1336.6,1148.5,1336.6,1165.3z M1281,1144.1v43.2h18.1c11,0,18.4-0.8,22.1-2.5
				c7.2-3.2,10.8-9.8,10.8-20c0-11.5-5.9-18.1-17.6-20c-3.2-0.5-8.2-0.8-15.2-0.8H1281z"/>
		</g>
	</g>
	<g>
		<g>
			<polygon fill="#009465" points="1044.7,586.3 1055.9,484.2 997.4,472.5 992,473.6 1010.8,602 			"/>
		</g>
		<g>
			<polygon fill="#00AE75" points="959.3,625.2 1010.8,602 992,473.6 931.5,486.6 			"/>
		</g>
		<g>
			<polygon fill="#009465" points="723.8,472.6 721.5,519.9 857,669.4 870.2,663.8 862,501.3 			"/>
		</g>
		<g>
			<polygon fill="#00AE75" points="911.2,490.9 862,501.3 870.2,663.8 937.9,634.6 			"/>
		</g>
		<g>
			<polygon fill="#00AE75" points="689.7,479.7 721.5,519.9 723.8,472.6 			"/>
		</g>
		<g>
			<polygon fill="#7D633A" points="1088.4,576.7 1156.7,566.4 1140.3,500.8 1095.2,492 			"/>
		</g>
		<g>
			<polygon fill="#977745" points="1296.5,545.1 1270.9,472.3 1141.3,501 1140.3,500.8 1156.7,566.4 			"/>
		</g>
		<g>
			<polygon fill="#357AA1" points="391.3,713.2 378.7,763.9 415.3,980.3 509.1,994.6 528.4,865.1 454.3,723.9 			"/>
		</g>
		<g>
			<polygon fill="#4396C4" points="601.3,980.3 528.4,865.1 509.1,994.6 			"/>
		</g>
		<g>
			<polygon fill="#4396C4" points="372.8,710.1 378.7,763.9 391.3,713.2 			"/>
		</g>
		<g>
			<polygon fill="#009465" points="412.8,626.4 395.3,697.1 446,705.8 			"/>
		</g>
		<g>
			<polygon fill="#00AE75" points="368,489.1 303.5,501.7 244.7,670.7 395.3,697.1 412.8,626.4 			"/>
		</g>
		<g>
			<polygon fill="#009465" points="385.1,975.6 363.4,849.2 357.4,849.8 328.4,966.8 			"/>
		</g>
		<g>
			<polygon fill="#00AE75" points="131.5,996.4 327.4,966.6 328.4,966.8 357.4,849.8 176.7,866.5 			"/>
		</g>
		<g>
			<polygon fill="#977745" points="239.1,686.8 182.1,850.7 361.3,834.1 347.5,705.7 			"/>
		</g>
		<g>
			<polygon fill="#E68460" points="551.6,494.8 460.7,636.1 496,714 556,680.6 582.8,501.5 			"/>
		</g>
		<g>
			<polygon fill="#FF936A" points="723.5,580 718.7,574.5 718.3,583.3 			"/>
		</g>
		<g>
			<polygon fill="#FF936A" points="582.8,501.5 556,680.6 718.3,583.3 718.7,574.5 649.9,487.8 			"/>
		</g>
		<g>
			<polygon fill="#00AE75" points="450.3,472.7 405.5,481.6 430,557.2 451,472.8 			"/>
		</g>
		<g>
			<polygon fill="#009465" points="532,490.6 451,472.8 430,557.2 451.6,614.1 			"/>
		</g>
		<g>
			<polygon fill="#FFE882" points="539.1,793.2 711.1,728.4 717.2,604.7 552.8,702.1 			"/>
		</g>
		<g>
			<polygon fill="#FFE882" points="503.5,729.3 537.5,793.8 539.1,793.2 552.8,702.1 			"/>
		</g>
		<g>
			<polygon fill="#E6D074" points="819.8,684.8 735.1,593.4 717.2,604.7 711.1,728.4 			"/>
		</g>
		<g>
			<polygon fill="#57CC67" points="763.9,741.3 876.1,781.9 871.9,697.8 			"/>
		</g>
		<g>
			<polygon fill="#61E674" points="876.1,781.9 1001.8,825.1 1026,706.3 1015.7,635.9 871.9,697.8 			"/>
		</g>
		<g>
			<polygon fill="#61E674" points="1039.2,625.3 1015.7,635.9 1026,706.3 			"/>
		</g>
		<g>
			<polygon fill="#00AE75" points="1262.8,990.8 1239.3,896.9 1181.4,979.2 			"/>
		</g>
		<g>
			<polygon fill="#00AE75" points="1264.2,991 1442.9,961.5 1416.5,886.5 1252.7,876.5 1239.3,896.9 1262.8,990.8 			"/>
		</g>
		<g>
			<polygon fill="#FFE882" points="1017.9,971.8 1063.7,964.4 1049,863.8 1043.5,863.4 			"/>
		</g>
		<g>
			<polygon fill="#E6D074" points="1071.1,963.2 1152.5,975.1 1223.6,874.7 1049,863.8 1063.7,964.4 			"/>
		</g>
		<g>
			<polygon fill="#009465" points="1049.4,835.2 1226.7,846.4 1205.8,762.8 1064.7,753.4 			"/>
		</g>
		<g>
			<polygon fill="#00AE75" points="1406.4,857.6 1377,774 1205.8,762.8 1226.7,846.4 			"/>
		</g>
		<g>
			<polygon fill="#357AA1" points="1067.2,738.2 1201.9,747.2 1164,595.7 1085.2,607.3 			"/>
		</g>
		<g>
			<polygon fill="#4396C4" points="1371.5,758.5 1306.8,574.3 1164,595.7 1201.9,747.2 			"/>
		</g>
		<g>
			<polygon fill="#00AE75" points="649.9,972.7 699.3,964.9 709.4,762.4 552.6,820.7 			"/>
		</g>
		<g>
			<polygon fill="#009465" points="778.5,976.8 848.9,805.3 719.3,758.6 709.4,762.4 699.3,964.9 			"/>
		</g>
		<g>
			<polygon fill="#FF936A" points="961.4,980.9 994.9,854.9 877.7,815.4 886.6,992.8 			"/>
		</g>
		<g>
			<polygon fill="#E0815E" points="806,980.9 886.6,992.8 877.7,815.4 872.6,813.6 			"/>
		</g>
		<g>
			<polygon fill="#E0E0E0" points="1181.4,979.2 1239.3,896.9 1226.7,846.4 1049.4,835.2 1064.7,753.4 1205.8,762.8 1201.9,747.2 
				1067.2,738.2 1085.2,607.3 1164,595.7 1156.7,566.4 1088.4,576.7 1095.2,492 1140.3,500.8 1133.4,473.4 993.2,444.9 988,446.1 
				992,473.6 997.4,472.5 1055.9,484.2 1044.7,586.3 1010.8,602 1015.7,635.9 1039.2,625.3 1026,706.3 1049,863.8 1223.6,874.7 
				1152.5,975.1 1071.1,963.2 1063.7,964.4 1067.8,991.9 1075.2,990.7 1269.7,1018.3 1262.8,990.8 			"/>
		</g>
		<g>
			<polygon fill="#FFFFFF" points="1017.9,971.8 1043.5,863.4 1049,863.8 1026,706.3 1001.8,825.1 876.1,781.9 877.7,815.4 
				994.9,854.9 961.4,980.9 886.6,992.8 888,1020.4 1067.8,991.9 1063.7,964.4 			"/>
		</g>
		<g>
			<polygon fill="#FFFFFF" points="1134.5,473.6 1133.4,473.4 1140.3,500.8 1141.3,501 1270.9,472.3 1296.5,545.1 1156.7,566.4 
				1164,595.7 1306.8,574.3 1371.5,758.5 1201.9,747.2 1205.8,762.8 1377,774 1406.4,857.6 1226.7,846.4 1239.3,896.9 1252.7,876.5 
				1416.5,886.5 1442.9,961.5 1264.2,991 1262.8,990.8 1269.7,1018.3 1271.1,1018.5 1498.9,981.3 1293.4,437.4 			"/>
		</g>
		<g>
			<polygon fill="#E0E0E0" points="806,980.9 872.6,813.6 877.7,815.4 876.1,781.9 763.9,741.3 871.9,697.8 870.2,663.8 857,669.4 
				721.5,519.9 718.7,574.5 723.5,580 718.3,583.3 717.2,604.7 735.1,593.4 819.8,684.8 711.1,728.4 709.4,762.4 719.3,758.6 
				848.9,805.3 778.5,976.8 699.3,964.9 697.9,992.5 888,1020.4 886.6,992.8 			"/>
		</g>
		<g>
			<polygon fill="#E0E0E0" points="532,490.6 451.6,614.1 430,557.2 412.8,626.4 446,705.8 395.3,697.1 391.3,713.2 454.3,723.9 
				528.4,865.1 539.1,793.2 537.5,793.8 503.5,729.3 552.8,702.1 556,680.6 496,714 460.7,636.1 551.6,494.8 582.8,501.5 
				586.9,473.8 457.8,445.1 451,472.8 			"/>
		</g>
		<g>
			<polygon fill="#FFFFFF" points="649.9,487.8 718.7,574.5 721.5,519.9 689.7,479.7 723.8,472.6 725.2,444.9 586.9,473.8 
				582.8,501.5 			"/>
		</g>
		<g>
			<polygon fill="#FFFFFF" points="552.8,702.1 717.2,604.7 718.3,583.3 556,680.6 			"/>
		</g>
		<g>
			<polygon fill="#FFFFFF" points="911.2,490.9 937.9,634.6 870.2,663.8 871.9,697.8 1015.7,635.9 1010.8,602 959.3,625.2 
				931.5,486.6 992,473.6 988,446.1 860.7,473.7 862,501.3 			"/>
		</g>
		<g>
			<polygon fill="#FFFFFF" points="862,501.3 860.7,473.7 725.2,444.9 723.8,472.6 			"/>
		</g>
		<g>
			<polygon fill="#FFFFFF" points="649.9,972.7 552.6,820.7 709.4,762.4 711.1,728.4 539.1,793.2 528.4,865.1 601.3,980.3 
				509.1,994.6 504.9,1022.3 697.9,992.5 699.3,964.9 			"/>
		</g>
		<g>
			<polygon fill="#FFFFFF" points="327.4,966.6 131.5,996.4 176.7,866.5 357.4,849.8 361.3,834.1 182.1,850.7 239.1,686.8 
				347.5,705.7 361.3,834.1 378.7,763.9 372.8,710.1 391.3,713.2 395.3,697.1 244.7,670.7 303.5,501.7 368,489.1 412.8,626.4 
				430,557.2 405.5,481.6 450.3,472.7 451,472.8 457.8,445.1 457.2,445 274.6,481.5 69.1,1031.9 320.6,994.3 321.5,994.5 
				328.4,966.8 			"/>
		</g>
		<g>
			<polygon fill="#EBEBEB" points="415.3,980.3 378.7,763.9 361.3,834.1 357.4,849.8 363.4,849.2 385.1,975.6 328.4,966.8 
				321.5,994.5 504.9,1022.3 509.1,994.6 			"/>
		</g>
	</g>
	<g>
		<g>
			<path fill="#FFFFFF" d="M948.9,143c-95.5,0-173.2,77.7-173.2,173.2c0,16.4,2.3,32.7,6.9,48.4l166.3,296.4l149.5-257.1l16.9-39.2
				c4.6-15.6,6.9-31.9,6.9-48.4C1122.2,220.7,1044.5,143,948.9,143z"/>
		</g>
		<g>
			<path fill="#E07D5A" d="M1096.1,316.2c0-81.2-65.9-147.1-147.1-147.1V609l126.9-218.3h0C1088.7,368.8,1096.1,343.4,1096.1,316.2z
				"/>
		</g>
		<g>
			<path fill="#FF936A" d="M801.8,316.2c0,27.2,7.4,52.6,20.3,74.5h0L948.9,609V169.1C867.7,169.1,801.8,234.9,801.8,316.2z"/>
		</g>
		<g>
			<path fill="#FFFFFF" d="M1039.1,316.2c0,49.8-40.4,90.2-90.2,90.2c-49.8,0-90.2-40.4-90.2-90.2c0-49.8,40.4-90.2,90.2-90.2
				C998.7,226,1039.1,266.4,1039.1,316.2z"/>
		</g>
	</g>
	<g>
		<g>
			<path fill="#FFFFFF" d="M372.7,591.1c1.9,11.7-13.6,24-34.6,27.5c-21,3.5-39.7-3.2-41.6-14.9s13.6-24,34.6-27.5
				C352.1,572.7,370.7,579.4,372.7,591.1z"/>
		</g>
		<g>
			<path fill="#D6D6D6" d="M354.6,590.9c0.7,4-8,8.8-19.4,10.7c-11.4,1.9-21.1,0.1-21.8-3.9c-0.7-4,8-8.8,19.4-10.7
				C344.2,585.1,354,586.9,354.6,590.9z"/>
		</g>
		<g>
			<g>
				<path fill="#4A941C" d="M362.1,419.3c-4.6,4-9.8,7.4-15.6,9.8c-0.2,8.8-6.5,16.4-15.5,17.9c-10.1,1.7-19.6-5.2-21.3-15.2
					c0-0.2,0-0.3,0-0.5c-20.2-5.7-36.4-22.6-40-44.7c0-0.3-0.1-0.6-0.1-0.8c-3.4,4.2-6.1,8.9-7.7,14.1c-1.5-0.1-3.1-0.1-4.7,0.2
					c-10.8,1.8-18.1,12-16.3,22.7c1,6.3,5,11.4,10.3,14.2c-4.7,5.9-7.1,13.6-5.8,21.7c2.5,14.9,16.6,25,31.5,22.6
					c7.5-1.2,13.7-5.4,17.8-11.1c4.7,4.3,11.1,6.5,17.9,5.4c7.8-1.3,13.9-6.7,16.5-13.6c4.6,2.5,10,3.6,15.6,2.7
					c13.5-2.2,22.6-14.9,20.3-28.4c-0.8-4.7-2.9-8.9-5.8-12.2C360.3,422.4,361.3,420.8,362.1,419.3z"/>
			</g>
			<g>
				<path fill="#57AE21" d="M333.4,379.6c-1.2,0.2-2.4,0.5-3.5,0.9c-9.2-7.9-21.7-11.8-34.5-9.7c-10.5,1.7-19.5,7.3-25.7,14.9
					c0,0.3,0.1,0.6,0.1,0.8c3.6,22.1,19.8,39,40,44.7c0,0.2,0,0.3,0,0.5c1.7,10.1,11.2,16.9,21.3,15.2c9-1.5,15.3-9.1,15.5-17.9
					c5.8-2.4,11-5.7,15.6-9.8c2.7-5.1,3.8-11,2.8-17.1C362.4,387.2,348.3,377.1,333.4,379.6z"/>
			</g>
			<g>
				<path fill="#575144" d="M336.6,593.9l-15.9,2.6l5.1-12.8c-5.6-60.6-16.9-102.6-16.9-102.6l-23.5-16.8l5.6-7.8l22.6,16.9
					l17.1-23.5l7.8,5.6L321.6,479c0,0,2.8,43.5,16.9,102.6l8.9,10.4L336.6,593.9"/>
			</g>
		</g>
	</g>
	<g>
		<g>
			<path fill="#FFFFFF" d="M691.8,832.4c2.5,14.9-17.2,30.5-44,34.9c-26.7,4.4-50.4-4.1-52.8-19c-2.5-14.9,17.2-30.5,44-34.9
				C665.7,809,689.3,817.5,691.8,832.4z"/>
		</g>
		<g>
			<path fill="#D6D6D6" d="M668.9,832.2c0.8,5.1-10.2,11.2-24.6,13.6c-14.4,2.4-26.8,0.2-27.7-5c-0.8-5.1,10.2-11.2,24.6-13.6
				C655.6,824.8,668,827.1,668.9,832.2z"/>
		</g>
		<g>
			<g>
				<path fill="#4A941C" d="M678.3,614c-5.8,5.1-12.5,9.4-19.8,12.4c-0.2,11.1-8.3,20.9-19.7,22.8c-12.8,2.1-24.9-6.6-27-19.4
					c0-0.2,0-0.4,0-0.6c-25.7-7.3-46.3-28.7-50.9-56.9c-0.1-0.4-0.1-0.7-0.1-1.1c-4.3,5.3-7.7,11.3-9.8,17.9
					c-1.9-0.1-3.9-0.1-5.9,0.2c-13.7,2.3-23,15.2-20.7,28.9c1.3,8,6.4,14.5,13,18c-6,7.5-9,17.3-7.3,27.5c3.1,19,21.1,31.8,40,28.7
					c9.5-1.6,17.4-6.8,22.6-14.1c5.9,5.4,14.1,8.3,22.7,6.9c9.9-1.6,17.6-8.5,20.9-17.3c5.9,3.1,12.7,4.6,19.8,3.4
					c17.1-2.8,28.7-19,25.9-36.1c-1-6-3.7-11.3-7.4-15.5C676,618,677.3,616.1,678.3,614z"/>
			</g>
			<g>
				<path fill="#57AE21" d="M641.8,563.6c-1.5,0.3-3,0.6-4.5,1.1c-11.7-10-27.5-15-43.9-12.3c-13.4,2.2-24.7,9.2-32.7,19
					c0.1,0.4,0.1,0.7,0.1,1.1c4.6,28.1,25.2,49.6,50.9,56.9c0,0.2,0,0.4,0,0.6c2.1,12.8,14.2,21.5,27,19.4
					c11.4-1.9,19.4-11.6,19.7-22.8c7.4-3.1,14-7.3,19.8-12.4c3.4-6.5,4.8-14,3.5-21.8C678.7,573.3,660.8,560.5,641.8,563.6z"/>
			</g>
			<g>
				<path fill="#575144" d="M645.9,836l-20.2,3.3l6.5-16.2c-7.1-77-21.5-130.5-21.5-130.5l-29.8-21.4l7.1-9.9l28.7,21.5l21.8-29.8
					l9.9,7.1L626.9,690c0,0,3.5,55.3,21.5,130.4l11.4,13.3L645.9,836"/>
			</g>
		</g>
	</g>
	<g>
		<g>
			<path fill="#FFFFFF" d="M1179.3,797.6c-1.5,13.1-21.9,21.5-45.6,18.8c-23.6-2.8-41.5-15.7-39.9-28.8
				c1.5-13.1,21.9-21.5,45.6-18.8C1163,771.6,1180.9,784.5,1179.3,797.6z"/>
		</g>
		<g>
			<path fill="#D6D6D6" d="M1160.1,791.9c-0.5,4.5-11.3,7-24,5.5c-12.8-1.5-22.7-6.4-22.1-10.9c0.5-4.5,11.3-7,24-5.5
				C1150.7,782.4,1160.6,787.3,1160.1,791.9z"/>
		</g>
		<g>
			<g>
				<path fill="#4A941C" d="M1221.1,610.2c-6.1,2.9-12.8,4.9-19.7,5.7c-2.9,9.3-12,15.6-22.1,14.4c-11.3-1.3-19.4-11.6-18.1-22.9
					c0-0.2,0.1-0.3,0.1-0.5c-19.9-12.4-32-35.5-29.1-60.3c0-0.3,0.1-0.6,0.2-0.9c-4.9,3.4-9.2,7.7-12.6,12.7c-1.6-0.6-3.3-1.1-5-1.3
					c-12.1-1.4-23.1,7.2-24.5,19.3c-0.8,7.1,1.8,13.7,6.6,18.4c-6.9,4.8-11.8,12.4-12.9,21.4c-2,16.8,10,31.9,26.8,33.9
					c8.4,1,16.4-1.5,22.5-6.4c3.7,6,9.9,10.4,17.5,11.3c8.8,1,16.9-2.9,21.9-9.5c4.2,4.1,9.6,6.9,15.9,7.7
					c15.1,1.8,28.8-9,30.6-24.1c0.6-5.3-0.4-10.4-2.5-14.9C1218.2,613,1219.7,611.7,1221.1,610.2z"/>
			</g>
			<g>
				<path fill="#57AE21" d="M1202.6,558.8c-1.4-0.2-2.7-0.2-4-0.2c-7.4-11.3-19.5-19.4-34-21.1c-11.8-1.4-23.1,1.8-32.2,8
					c0,0.3-0.1,0.6-0.2,0.9c-2.9,24.8,9.2,47.9,29.1,60.3c0,0.2-0.1,0.3-0.1,0.5c-1.3,11.3,6.8,21.6,18.1,22.9
					c10.1,1.2,19.2-5.1,22.1-14.4c7-0.8,13.6-2.7,19.7-5.7c4.4-4.6,7.5-10.6,8.3-17.5C1231.4,576,1219.4,560.8,1202.6,558.8z"/>
			</g>
			<g>
				<path fill="#575144" d="M1139.8,789.5l-17.8-2.1l9.4-12.1C1144.1,708.6,1145,660,1145,660l-20-25.3l8.4-6.6l19,25.1l25.6-19.9
					l6.6,8.4l-25.3,20c0,0-10.5,47.4-13.6,115.2l6.4,14L1139.8,789.5"/>
			</g>
		</g>
	</g>
	<g>
		<g>
			<g>
				<g>
					
						<rect x="193.7" y="890.2" transform="matrix(-0.9921 0.1253 -0.1253 -0.9921 507.1558 1757.5951)" fill="#656769" width="9.2" height="9.2"/>
				</g>
				<g>
					<polygon fill="#656769" points="211.7,938.3 220.8,937.2 219.6,928.1 210.5,929.2 					"/>
				</g>
				<g>
					
						<rect x="195.4" y="903.5" transform="matrix(-0.9921 0.1252 -0.1252 -0.9921 512.1281 1783.9573)" fill="#656769" width="9.2" height="9.2"/>
				</g>
				<g>
					
						<rect x="197.1" y="916.8" transform="matrix(-0.9921 0.1251 -0.1251 -0.9921 517.0638 1810.3416)" fill="#656769" width="9.2" height="9.2"/>
				</g>
				<g>
					
						<rect x="198.8" y="930.2" transform="matrix(-0.9921 0.1251 -0.1251 -0.9921 522.0823 1836.6875)" fill="#656769" width="9.2" height="9.2"/>
				</g>
				<g>
					
						<rect x="186.5" y="833.3" transform="matrix(-0.9921 0.1254 -0.1254 -0.9921 485.8556 1645.1298)" fill="#656769" width="9.2" height="9.2"/>
				</g>
				<g>
					<polygon fill="#656769" points="190.5,869.7 199.6,868.5 198.5,859.4 189.4,860.6 					"/>
				</g>
				<g>
					<polygon fill="#656769" points="188.8,856.3 197.9,855.2 196.8,846.1 187.7,847.2 					"/>
				</g>
				<g>
					<polygon fill="#656769" points="192.2,883 201.3,881.8 200.2,872.7 191.1,873.9 					"/>
				</g>
				<g>
					<polygon fill="#656769" points="183.7,914.8 192.8,913.6 191.7,904.5 182.6,905.7 					"/>
				</g>
				<g>
					<polygon fill="#656769" points="185.4,928.1 194.5,926.9 193.4,917.8 184.2,919 					"/>
				</g>
				<g>
					<polygon fill="#656769" points="182,901.4 191.1,900.3 190,891.2 180.9,892.3 					"/>
				</g>
				<g>
					
						<rect x="186.5" y="931.7" transform="matrix(-0.9921 0.1253 -0.1253 -0.9921 497.9568 1841.2587)" fill="#656769" width="9.2" height="9.2"/>
				</g>
				<g>
					<polygon fill="#656769" points="178.2,871.2 187.3,870.1 186.2,861 177.1,862.1 					"/>
				</g>
				<g>
					
						<rect x="175.9" y="848.2" transform="matrix(-0.9921 0.1253 -0.1253 -0.9921 466.4871 1676.1365)" fill="#656769" width="9.2" height="9.2"/>
				</g>
				<g>
					<polygon fill="#656769" points="179.9,884.5 189,883.4 187.9,874.3 178.7,875.4 					"/>
				</g>
				<g>
					<polygon fill="#656769" points="174.9,844.5 184,843.4 182.8,834.3 173.7,835.4 					"/>
				</g>
				<g>
					
						<rect x="203.9" y="871.7" transform="matrix(-0.9921 0.1255 -0.1255 -0.9921 525.3496 1719.4941)" fill="#656769" width="9.2" height="9.2"/>
				</g>
				<g>
					
						<rect x="216.2" y="870.2" transform="matrix(-0.9921 0.1251 -0.1251 -0.9921 549.2611 1715.0127)" fill="#656769" width="9.2" height="9.2"/>
				</g>
				<g>
					<polygon fill="#656769" points="215.1,866.5 224.2,865.4 223.1,856.3 214,857.4 					"/>
				</g>
				<g>
					<polygon fill="#656769" points="218.9,896.8 228.1,895.6 226.9,886.5 217.8,887.7 					"/>
				</g>
				<g>
					
						<rect x="220" y="900.4" transform="matrix(-0.9921 0.1252 -0.1252 -0.9921 560.7394 1774.7029)" fill="#656769" width="9.2" height="9.2"/>
				</g>
				<g>
					<polygon fill="#656769" points="213.5,853.2 222.6,852.1 221.4,843 212.3,844.1 					"/>
				</g>
				<g>
					<polygon fill="#656769" points="211.8,839.9 220.9,838.7 219.7,829.6 210.6,830.8 					"/>
				</g>
				<g>
					
						<rect x="221.7" y="913.7" transform="matrix(-0.9921 0.1252 -0.1252 -0.9921 565.8032 1801.0415)" fill="#656769" width="9.2" height="9.2"/>
				</g>
				<g>
					<polygon fill="#656769" points="206.6,898.3 215.8,897.2 214.6,888.1 205.5,889.2 					"/>
				</g>
				<g>
					
						<rect x="209.4" y="915.3" transform="matrix(-0.9921 0.1251 -0.1251 -0.9921 541.3435 1805.7267)" fill="#656769" width="9.2" height="9.2"/>
				</g>
				<g>
					
						<rect x="207.7" y="901.9" transform="matrix(-0.9921 0.1252 -0.1252 -0.9921 536.4546 1779.3247)" fill="#656769" width="9.2" height="9.2"/>
				</g>
				<g>
					<polygon fill="#656769" points="202.8,868.1 211.9,866.9 210.8,857.8 201.7,859 					"/>
				</g>
				<g>
					<polygon fill="#656769" points="201.1,854.8 210.3,853.6 209.1,844.5 200,845.7 					"/>
				</g>
				<g>
					
						<rect x="223.4" y="927" transform="matrix(-0.9921 0.1251 -0.1251 -0.9921 570.7314 1827.4231)" fill="#656769" width="9.2" height="9.2"/>
				</g>
				<g>
					<polygon fill="#656769" points="199.5,841.4 208.6,840.3 207.4,831.2 198.3,832.3 					"/>
				</g>
				<g>
					<path fill="#A7A9AC" d="M168.8,831l14.7,116.4l54.5-6.9l-14.7-116.4L168.8,831z M196.2,940.3l-9.1,1.2l-1.2-9.1l9.1-1.2
						L196.2,940.3z M194.5,926.9l-9.1,1.1l-1.1-9.1l9.1-1.2L194.5,926.9z M192.8,913.6l-9.1,1.2l-1.1-9.1l9.1-1.2L192.8,913.6z
						 M191.1,900.3l-9.1,1.1l-1.1-9.1l9.1-1.2L191.1,900.3z M189,883.4l-9.1,1.1l-1.1-9.1l9.1-1.1L189,883.4z M187.3,870.1l-9.1,1.2
						l-1.1-9.1l9.1-1.2L187.3,870.1z M185.6,856.7l-9.1,1.2l-1.1-9.1l9.1-1.1L185.6,856.7z M184,843.4l-9.1,1.2l-1.2-9.1l9.1-1.2
						L184,843.4z M208.5,938.7l-9.1,1.1l-1.1-9.1l9.1-1.2L208.5,938.7z M206.8,925.4l-9.1,1.1l-1.1-9.1l9.1-1.2L206.8,925.4z
						 M205.1,912.1l-9.1,1.1l-1.1-9.1l9.1-1.2L205.1,912.1z M203.4,898.7l-9.1,1.1l-1.2-9.1l9.1-1.2L203.4,898.7z M201.3,881.8
						l-9.1,1.2l-1.1-9.1l9.1-1.1L201.3,881.8z M199.6,868.5l-9.1,1.2l-1.1-9.1l9.1-1.2L199.6,868.5z M197.9,855.2l-9.1,1.2l-1.1-9.1
						l9.1-1.1L197.9,855.2z M196.3,841.8l-9.1,1.2l-1.1-9.1l9.1-1.1L196.3,841.8z M220.8,937.2l-9.1,1.1l-1.1-9.1l9.1-1.2
						L220.8,937.2z M219.1,923.8L210,925l-1.1-9.1l9.1-1.2L219.1,923.8z M217.4,910.5l-9.1,1.1l-1.2-9.1l9.1-1.2L217.4,910.5z
						 M215.8,897.2l-9.1,1.2l-1.1-9.1l9.1-1.2L215.8,897.2z M213.6,880.3l-9.1,1.2l-1.2-9.1l9.1-1.2L213.6,880.3z M211.9,866.9
						l-9.1,1.1l-1.1-9.1l9.1-1.2L211.9,866.9z M210.3,853.6l-9.1,1.2l-1.1-9.1l9.1-1.2L210.3,853.6z M208.6,840.3l-9.1,1.1l-1.2-9.1
						l9.1-1.2L208.6,840.3z M233.1,935.6l-9.1,1.1l-1.1-9.1l9.1-1.2L233.1,935.6z M231.4,922.3l-9.1,1.1l-1.1-9.1l9.1-1.1
						L231.4,922.3z M229.7,908.9l-9.1,1.1l-1.1-9.1l9.1-1.2L229.7,908.9z M228.1,895.6l-9.1,1.2l-1.1-9.1l9.1-1.1L228.1,895.6z
						 M225.9,878.7l-9.1,1.1l-1.1-9.1l9.1-1.2L225.9,878.7z M224.2,865.4l-9.1,1.1l-1.1-9.1l9.1-1.2L224.2,865.4z M222.6,852.1
						l-9.1,1.1l-1.2-9.1l9.1-1.2L222.6,852.1z M220.9,838.7l-9.1,1.1l-1.1-9.1l9.1-1.2L220.9,838.7z"/>
				</g>
			</g>
			<g>
				<g>
					<polygon fill="#A86E6A" points="298.2,906.6 305.5,905.7 304.6,898.4 297.3,899.3 					"/>
				</g>
				<g>
					
						<rect x="296.3" y="888" transform="matrix(-0.9921 0.1256 -0.1256 -0.9921 709.6774 1738.7439)" fill="#A86E6A" width="7.4" height="7.4"/>
				</g>
				<g>
					<polygon fill="#A86E6A" points="295.1,882.3 302.5,881.3 301.5,874 294.2,874.9 					"/>
				</g>
				<g>
					<polygon fill="#A86E6A" points="300.9,928.1 308.3,927.2 307.3,919.9 300,920.8 					"/>
				</g>
				<g>
					<polygon fill="#A86E6A" points="291,929.4 298.3,928.5 297.4,921.1 290.1,922 					"/>
				</g>
				<g>
					
						<rect x="290.6" y="842.2" transform="matrix(-0.9921 0.1256 -0.1256 -0.9921 692.426 1648.0601)" fill="#A86E6A" width="7.4" height="7.4"/>
				</g>
				<g>
					<polygon fill="#A86E6A" points="292.4,860.7 299.7,859.8 298.8,852.5 291.5,853.4 					"/>
				</g>
				<g>
					<polygon fill="#A86E6A" points="293.8,871.5 301.1,870.6 300.2,863.2 292.8,864.2 					"/>
				</g>
				<g>
					
						<rect x="299.1" y="909.5" transform="matrix(-0.9921 0.1255 -0.1255 -0.9921 717.7211 1781.277)" fill="#A86E6A" width="7.4" height="7.4"/>
				</g>
				<g>
					<polygon fill="#A86E6A" points="288.3,907.9 295.6,906.9 294.7,899.6 287.3,900.5 					"/>
				</g>
				<g>
					<polygon fill="#A86E6A" points="286.9,897.1 294.3,896.2 293.3,888.9 286,889.8 					"/>
				</g>
				<g>
					
						<rect x="289.1" y="910.8" transform="matrix(-0.9921 0.1256 -0.1256 -0.9921 698.2273 1784.9609)" fill="#A86E6A" width="7.4" height="7.4"/>
				</g>
				<g>
					
						<rect x="280.6" y="843.4" transform="matrix(-0.9921 0.1252 -0.1252 -0.9921 672.508 1651.9459)" fill="#A86E6A" width="7.4" height="7.4"/>
				</g>
				<g>
					<polygon fill="#A86E6A" points="285.2,883.5 292.5,882.6 291.6,875.2 284.3,876.2 					"/>
				</g>
				<g>
					
						<rect x="282" y="854.2" transform="matrix(-0.9921 0.1256 -0.1256 -0.9921 676.8684 1673.047)" fill="#A86E6A" width="7.4" height="7.4"/>
				</g>
				<g>
					
						<rect x="283.3" y="864.9" transform="matrix(-0.9922 0.125 -0.125 -0.9922 680.3857 1694.5536)" fill="#A86E6A" width="7.4" height="7.4"/>
				</g>
				<g>
					
						<rect x="310.3" y="919" transform="matrix(-0.9921 0.1254 -0.1254 -0.9921 741.277 1798.8413)" fill="#A86E6A" width="7.4" height="7.4"/>
				</g>
				<g>
					<polygon fill="#A86E6A" points="315,879.7 322.3,878.8 321.4,871.5 314,872.4 					"/>
				</g>
				<g>
					
						<rect x="313.1" y="861.2" transform="matrix(-0.9921 0.1251 -0.1251 -0.9921 739.3402 1683.2932)" fill="#A86E6A" width="7.4" height="7.4"/>
				</g>
				<g>
					<polygon fill="#A86E6A" points="316.7,893.4 324,892.4 323.1,885.1 315.8,886 					"/>
				</g>
				<g>
					<polygon fill="#A86E6A" points="318,904.1 325.4,903.2 324.5,895.9 317.1,896.8 					"/>
				</g>
				<g>
					
						<rect x="318.9" y="907" transform="matrix(-0.9922 0.125 -0.125 -0.9922 756.5048 1774.0188)" fill="#A86E6A" width="7.4" height="7.4"/>
				</g>
				<g>
					
						<rect x="311.8" y="850.4" transform="matrix(-0.9922 0.125 -0.125 -0.9922 735.186 1662.0964)" fill="#A86E6A" width="7.4" height="7.4"/>
				</g>
				<g>
					<polygon fill="#A86E6A" points="310.9,847.5 318.2,846.6 317.3,839.2 310,840.1 					"/>
				</g>
				<g>
					
						<rect x="301.8" y="851.7" transform="matrix(-0.9922 0.125 -0.125 -0.9922 715.6294 1665.8035)" fill="#A86E6A" width="7.4" height="7.4"/>
				</g>
				<g>
					<polygon fill="#A86E6A" points="306.8,894.6 314.1,893.7 313.2,886.3 305.8,887.3 					"/>
				</g>
				<g>
					
						<rect x="307.6" y="897.5" transform="matrix(-0.9921 0.1251 -0.1251 -0.9921 732.9567 1756.4457)" fill="#A86E6A" width="7.4" height="7.4"/>
				</g>
				<g>
					<polygon fill="#A86E6A" points="320.8,925.6 328.1,924.7 327.2,917.4 319.8,918.3 					"/>
				</g>
				<g>
					<polygon fill="#A86E6A" points="305,881 312.4,880.1 311.5,872.7 304.1,873.7 					"/>
				</g>
				<g>
					<polygon fill="#A86E6A" points="303.7,870.2 311,869.3 310.1,862 302.8,862.9 					"/>
				</g>
				<g>
					<polygon fill="#A86E6A" points="309.5,916.1 316.8,915.2 315.9,907.9 308.6,908.8 					"/>
				</g>
				<g>
					<polygon fill="#A86E6A" points="301,848.7 308.3,847.8 307.4,840.5 300,841.4 					"/>
				</g>
				<g>
					<path fill="#FF936A" d="M276.3,840.3l11.8,93.9l44-5.5l-11.9-93.9L276.3,840.3z M298.3,928.5l-7.3,0.9l-0.9-7.3l7.3-0.9
						L298.3,928.5z M297,917.7l-7.3,0.9l-0.9-7.3l7.3-0.9L297,917.7z M295.6,906.9l-7.3,0.9l-0.9-7.3l7.3-0.9L295.6,906.9z
						 M294.3,896.2l-7.3,0.9l-0.9-7.3l7.3-0.9L294.3,896.2z M292.5,882.6l-7.3,0.9l-0.9-7.3l7.3-0.9L292.5,882.6z M291.2,871.8
						l-7.3,0.9l-0.9-7.3l7.3-0.9L291.2,871.8z M289.8,861.1l-7.3,0.9l-0.9-7.3l7.3-0.9L289.8,861.1z M288.5,850.3l-7.3,0.9l-0.9-7.3
						l7.3-0.9L288.5,850.3z M308.3,927.2l-7.3,0.9l-0.9-7.3l7.3-0.9L308.3,927.2z M306.9,916.4l-7.3,0.9l-0.9-7.3l7.3-0.9
						L306.9,916.4z M305.5,905.7l-7.3,0.9l-0.9-7.3l7.3-0.9L305.5,905.7z M304.2,894.9l-7.3,0.9l-0.9-7.3l7.3-0.9L304.2,894.9z
						 M302.5,881.3l-7.3,0.9l-0.9-7.3l7.3-0.9L302.5,881.3z M301.1,870.6l-7.3,0.9l-0.9-7.3l7.3-0.9L301.1,870.6z M299.7,859.8
						l-7.3,0.9l-0.9-7.3l7.3-0.9L299.7,859.8z M298.4,849.1L291,850l-0.9-7.3l7.3-0.9L298.4,849.1z M318.2,925.9l-7.3,0.9l-0.9-7.3
						l7.3-0.9L318.2,925.9z M316.8,915.2l-7.3,0.9l-0.9-7.3l7.3-0.9L316.8,915.2z M315.5,904.4l-7.3,0.9l-0.9-7.3l7.3-0.9
						L315.5,904.4z M314.1,893.7l-7.3,0.9l-0.9-7.3l7.3-0.9L314.1,893.7z M312.4,880.1L305,881l-0.9-7.3l7.3-0.9L312.4,880.1z
						 M311,869.3l-7.3,0.9l-0.9-7.3l7.3-0.9L311,869.3z M309.7,858.6l-7.3,0.9l-0.9-7.3l7.3-0.9L309.7,858.6z M308.3,847.8l-7.3,0.9
						l-0.9-7.3l7.3-0.9L308.3,847.8z M328.1,924.7l-7.3,0.9l-0.9-7.3l7.3-0.9L328.1,924.7z M326.7,913.9l-7.3,0.9l-0.9-7.3l7.3-0.9
						L326.7,913.9z M325.4,903.2l-7.3,0.9l-0.9-7.3l7.3-0.9L325.4,903.2z M324,892.4l-7.3,0.9l-0.9-7.3l7.3-0.9L324,892.4z
						 M322.3,878.8l-7.3,0.9l-0.9-7.3l7.3-0.9L322.3,878.8z M321,868.1l-7.3,0.9l-0.9-7.3l7.3-0.9L321,868.1z M319.6,857.3l-7.3,0.9
						l-0.9-7.3l7.3-0.9L319.6,857.3z M318.2,846.6l-7.3,0.9l-0.9-7.3l7.3-0.9L318.2,846.6z"/>
				</g>
			</g>
			<g>
				<g>
					
						<rect x="240.7" y="835" transform="matrix(-0.9921 0.1254 -0.1254 -0.9921 593.219 1641.1798)" fill="#316E91" width="8.4" height="8.4"/>
				</g>
				<g>
					<polygon fill="#316E91" points="244.8,871.7 253.2,870.7 252.1,862.3 243.7,863.4 					"/>
				</g>
				<g>
					
						<rect x="236" y="888.7" transform="matrix(-0.9921 0.1255 -0.1255 -0.9921 590.6222 1748.707)" fill="#316E91" width="8.4" height="8.4"/>
				</g>
				<g>
					
						<rect x="258.6" y="885.9" transform="matrix(-0.9921 0.1254 -0.1254 -0.9921 635.2609 1740.2097)" fill="#316E91" width="8.4" height="8.4"/>
				</g>
				<g>
					<polygon fill="#316E91" points="238.2,819.5 246.6,818.4 245.5,810.1 237.1,811.1 					"/>
				</g>
				<g>
					<polygon fill="#316E91" points="239.8,831.7 248.1,830.7 247.1,822.3 238.7,823.4 					"/>
				</g>
				<g>
					<polygon fill="#316E91" points="236.7,807.2 245,806.2 244,797.8 235.6,798.9 					"/>
				</g>
				<g>
					
						<rect x="245.8" y="875.1" transform="matrix(-0.9921 0.1255 -0.1255 -0.9921 608.3412 1720.2416)" fill="#316E91" width="8.4" height="8.4"/>
				</g>
				<g>
					
						<rect x="242.7" y="850.6" transform="matrix(-0.9921 0.1254 -0.1254 -0.9921 599.0668 1671.8429)" fill="#316E91" width="8.4" height="8.4"/>
				</g>
				<g>
					
						<rect x="232.9" y="864.2" transform="matrix(-0.9921 0.1254 -0.1254 -0.9921 581.3354 1700.3167)" fill="#316E91" width="8.4" height="8.4"/>
				</g>
				<g>
					<polygon fill="#316E91" points="230,845.4 238.4,844.3 237.3,836 228.9,837 					"/>
				</g>
				<g>
					
						<rect x="231.4" y="852" transform="matrix(-0.9921 0.1253 -0.1253 -0.9921 576.6272 1676.1453)" fill="#316E91" width="8.4" height="8.4"/>
				</g>
				<g>
					
						<rect x="234.5" y="876.5" transform="matrix(-0.9921 0.1251 -0.1251 -0.9921 585.7046 1724.6222)" fill="#316E91" width="8.4" height="8.4"/>
				</g>
				<g>
					<polygon fill="#316E91" points="225.4,808.6 233.7,807.6 232.7,799.2 224.3,800.3 					"/>
				</g>
				<g>
					
						<rect x="247.3" y="887.3" transform="matrix(-0.9921 0.1254 -0.1254 -0.9921 612.8691 1744.4877)" fill="#316E91" width="8.4" height="8.4"/>
				</g>
				<g>
					<polygon fill="#316E91" points="226.9,820.9 235.3,819.8 234.2,811.5 225.8,812.5 					"/>
				</g>
				<g>
					
						<rect x="227.9" y="824.2" transform="matrix(-0.9921 0.1253 -0.1253 -0.9921 566.2093 1621.2549)" fill="#316E91" width="8.4" height="8.4"/>
				</g>
				<g>
					
						<rect x="247.4" y="796.9" transform="matrix(-0.9921 0.1253 -0.1253 -0.9921 601.632 1564.3325)" fill="#316E91" width="8.4" height="8.4"/>
				</g>
				<g>
					
						<rect x="263.4" y="832.2" transform="matrix(-0.9921 0.1251 -0.1251 -0.9921 637.6825 1632.7659)" fill="#316E91" width="8.4" height="8.4"/>
				</g>
				<g>
					
						<rect x="266.9" y="860" transform="matrix(-0.9921 0.1251 -0.1251 -0.9921 648.1454 1687.6338)" fill="#316E91" width="8.4" height="8.4"/>
				</g>
				<g>
					
						<rect x="257.1" y="873.6" transform="matrix(-0.9921 0.1254 -0.1254 -0.9921 630.647 1715.9993)" fill="#316E91" width="8.4" height="8.4"/>
				</g>
				<g>
					<polygon fill="#316E91" points="262.4,828.9 270.7,827.8 269.7,819.4 261.3,820.5 					"/>
				</g>
				<g>
					<polygon fill="#316E91" points="260.8,816.6 269.2,815.6 268.1,807.2 259.8,808.3 					"/>
				</g>
				<g>
					<polygon fill="#316E91" points="259.3,804.4 267.6,803.3 266.6,794.9 258.2,796 					"/>
				</g>
				<g>
					
						<rect x="265.3" y="847.7" transform="matrix(-0.9922 0.1246 -0.1246 -0.9922 643.1068 1663.6204)" fill="#316E91" width="8.4" height="8.4"/>
				</g>
				<g>
					
						<rect x="254" y="849.1" transform="matrix(-0.9921 0.1252 -0.1252 -0.9921 621.2765 1667.6381)" fill="#316E91" width="8.4" height="8.4"/>
				</g>
				<g>
					<polygon fill="#316E91" points="256.1,870.3 264.5,869.3 263.4,860.9 255.1,861.9 					"/>
				</g>
				<g>
					<polygon fill="#316E91" points="252.6,842.5 261,841.5 259.9,833.1 251.5,834.2 					"/>
				</g>
				<g>
					<polygon fill="#316E91" points="251.1,830.3 259.4,829.2 258.4,820.9 250,821.9 					"/>
				</g>
				<g>
					
						<rect x="268.4" y="872.2" transform="matrix(-0.9922 0.125 -0.125 -0.9922 652.6076 1711.9111)" fill="#316E91" width="8.4" height="8.4"/>
				</g>
				<g>
					<polygon fill="#316E91" points="270.5,893.4 278.9,892.3 277.8,884 269.5,885 					"/>
				</g>
				<g>
					
						<rect x="248.9" y="809.1" transform="matrix(-0.9921 0.1253 -0.1253 -0.9921 606.254 1588.5396)" fill="#316E91" width="8.4" height="8.4"/>
				</g>
				<g>
					<path fill="#4396C4" d="M266.6,790.3l-0.6-5.1l-1.8,0.2l-20.1-10.3l-3.9-18.7l0.8,19.1l-16.9,15l-1.8,0.2l0.6,5.1l-3.3,0.4
						L238,940.7l50.1-6.3l-18.2-144.5L266.6,790.3z M245,896.6l-8.4,1.1l-1.1-8.4l8.4-1.1L245,896.6z M243.4,884.4l-8.4,1.1L234,877
						l8.4-1.1L243.4,884.4z M241.9,872.1l-8.4,1.1l-1.1-8.4l8.4-1.1L241.9,872.1z M240.3,859.9l-8.4,1.1l-1.1-8.4l8.4-1.1
						L240.3,859.9z M238.4,844.3l-8.4,1.1l-1.1-8.4l8.4-1L238.4,844.3z M236.8,832.1l-8.4,1.1l-1.1-8.4l8.4-1.1L236.8,832.1z
						 M235.3,819.8l-8.4,1.1l-1.1-8.4l8.4-1.1L235.3,819.8z M233.7,807.6l-8.4,1l-1.1-8.4l8.4-1.1L233.7,807.6z M256.3,895.2
						l-8.4,1.1l-1.1-8.4l8.4-1.1L256.3,895.2z M254.7,882.9l-8.4,1.1l-1.1-8.4l8.4-1.1L254.7,882.9z M253.2,870.7l-8.4,1.1l-1.1-8.4
						l8.4-1.1L253.2,870.7z M251.6,858.4l-8.4,1.1l-1.1-8.4l8.4-1.1L251.6,858.4z M249.7,842.9l-8.4,1.1l-1.1-8.4l8.4-1.1
						L249.7,842.9z M248.1,830.7l-8.4,1.1l-1.1-8.4l8.4-1.1L248.1,830.7z M246.6,818.4l-8.4,1.1l-1.1-8.4l8.4-1.1L246.6,818.4z
						 M245,806.2l-8.4,1.1l-1.1-8.4l8.4-1.1L245,806.2z M267.6,893.8l-8.4,1.1l-1.1-8.4l8.4-1.1L267.6,893.8z M266,881.5l-8.4,1.1
						l-1.1-8.4l8.4-1.1L266,881.5z M264.5,869.3l-8.4,1.1l-1.1-8.4l8.4-1.1L264.5,869.3z M262.9,857l-8.4,1.1l-1.1-8.4l8.4-1.1
						L262.9,857z M261,841.5l-8.4,1l-1.1-8.4l8.4-1.1L261,841.5z M259.4,829.2l-8.4,1.1l-1.1-8.4l8.4-1.1L259.4,829.2z M257.9,817
						l-8.4,1.1l-1.1-8.4l8.4-1.1L257.9,817z M256.3,804.7l-8.4,1.1l-1.1-8.4l8.4-1.1L256.3,804.7z M278.9,892.3l-8.4,1.1l-1.1-8.4
						l8.4-1.1L278.9,892.3z M277.3,880.1l-8.4,1.1l-1.1-8.4l8.4-1.1L277.3,880.1z M275.8,867.8l-8.4,1.1l-1.1-8.4l8.4-1.1
						L275.8,867.8z M274.2,855.6l-8.4,1l-1.1-8.4l8.4-1.1L274.2,855.6z M272.3,840.1l-8.4,1.1l-1.1-8.4l8.4-1.1L272.3,840.1z
						 M270.7,827.8l-8.4,1.1l-1.1-8.4l8.4-1.1L270.7,827.8z M269.2,815.6l-8.4,1.1l-1.1-8.4l8.4-1.1L269.2,815.6z M267.6,803.3
						l-8.4,1.1l-1.1-8.4l8.4-1.1L267.6,803.3z"/>
				</g>
			</g>
		</g>
		<g>
			
				<rect x="171.4" y="938.2" transform="matrix(0.9921 -0.1252 0.1252 0.9921 -116.3104 39.7882)" fill="#575144" width="173.8" height="13.5"/>
		</g>
	</g>
	<g>
		<g>
			<path fill="#FFFFFF" d="M979,883.5c2.5,9.9-9.9,21.6-27.8,26c-17.8,4.5-34.3,0-36.8-9.9c-2.5-9.9,10-21.6,27.8-26
				C960,869.2,976.5,873.6,979,883.5z"/>
		</g>
		<g>
			<path fill="#D6D6D6" d="M970.2,883.3c1.2,4.7-8.6,11.1-21.9,14.4c-13.2,3.3-24.9,2.2-26.1-2.4c-1.2-4.6,8.6-11.1,21.9-14.4
				C957.3,877.6,969,878.7,970.2,883.3z"/>
		</g>
		<g>
			<g>
				
					<rect x="930.8" y="883.8" transform="matrix(0.9747 -0.2236 0.2236 0.9747 -174.571 233.9919)" fill="#414042" width="30.1" height="7.9"/>
			</g>
			<g>
				<path fill="#414042" d="M912.1,703.9l-1.2,0.3l-13.7,3.1l-1.2,0.3c-2.1,0.5-3.5,2.6-3,4.7c0.5,2.1,2.6,3.5,4.7,3l16.2-3.7
					c2.1-0.5,3.5-2.6,3-4.7C916.4,704.7,914.3,703.4,912.1,703.9z"/>
			</g>
			<g>
				<polygon fill="#FFEC84" points="876.7,662.1 891.6,690.9 898.4,689.3 891.4,658.7 				"/>
			</g>
			<g>
				<polygon fill="#FFEC84" points="908.8,686.9 909.7,654.5 895,657.9 902,688.5 				"/>
			</g>
			<g>
				<path fill="#2D2C2E" d="M894.4,655.4l-3.6,0.8l-17.9,4.1l17.3,33.4l8.7-2l3.6-0.8l8.7-2l1-37.6L894.4,655.4z M891.6,690.9
					l-14.9-28.8l14.7-3.4l7,30.6L891.6,690.9z M908.8,686.9l-6.8,1.6l-7-30.6l14.7-3.4L908.8,686.9z"/>
			</g>
			<g>
				<path fill="#414042" d="M914.7,648c0.3,1.4-0.6,2.9-2,3.2l-40.3,9.2c-1.4,0.3-2.9-0.6-3.2-2l0,0c-0.3-1.4,0.6-2.9,2-3.2
					l40.3-9.2C913,645.6,914.4,646.5,914.7,648L914.7,648z"/>
			</g>
			<g>
				<path fill="#414042" d="M890.1,632.6l-0.8-3.7l-5.3,1.2l0.8,3.7c0.8-0.3,1.7-0.6,2.6-0.8C888.3,632.8,889.2,632.7,890.1,632.6z"
					/>
			</g>
			<g>
				<path fill="#323133" d="M890.1,632.6c-0.9,0.1-1.8,0.2-2.7,0.4c-0.9,0.2-1.8,0.5-2.6,0.8c-8.3,3.2-13.2,12-11.4,20.9l36.1-8.3
					C907.2,637.7,898.9,631.9,890.1,632.6z"/>
			</g>
			<g>
				<polygon fill="#373638" points="901.4,714.5 940.5,884.9 946.7,883.5 907.6,713.1 				"/>
			</g>
			<g>
				
					<rect x="927.1" y="710.6" transform="matrix(0.9747 -0.2236 0.2236 0.9747 -154.9189 227.8085)" fill="#2D2C2E" width="2.8" height="174.8"/>
			</g>
			<g>
				<g>
					<path fill="#373638" d="M892.3,693.3c2.8,6,4.2,11.1,4.9,14l10-2.3c-0.5-2.6-1.5-8-1.6-14.8L892.3,693.3z"/>
				</g>
				<g>
					<path fill="#2D2C2E" d="M909.2,689.4l-3.7,0.8c0.2,6.8,1.1,12.2,1.6,14.8l3.8-0.9C910.2,701.2,909.3,696,909.2,689.4z"/>
				</g>
			</g>
		</g>
	</g>
	<g>
		<g>
			<path fill="#FFFFFF" d="M1249,504.9c2,7.8-7.9,17-21.9,20.6c-14.1,3.5-27.1,0-29-7.8c-2-7.8,7.9-17,21.9-20.6
				C1234.1,493.5,1247.1,497,1249,504.9z"/>
		</g>
		<g>
			<path fill="#D6D6D6" d="M1242.1,504.7c0.9,3.7-6.8,8.8-17.3,11.4c-10.5,2.6-19.7,1.8-20.6-1.9c-0.9-3.7,6.8-8.8,17.3-11.4
				C1231.9,500.2,1241.1,501.1,1242.1,504.7z"/>
		</g>
		<g>
			<g>
				
					<rect x="1210.9" y="505.1" transform="matrix(0.9747 -0.2236 0.2236 0.9747 -82.6715 286.2888)" fill="#414042" width="23.8" height="6.3"/>
			</g>
			<g>
				<path fill="#414042" d="M1196.2,363l-1,0.2l-10.8,2.5l-1,0.2c-1.7,0.4-2.7,2.1-2.3,3.7c0.4,1.7,2.1,2.7,3.7,2.4l12.8-2.9
					c1.7-0.4,2.7-2.1,2.4-3.7C1199.6,363.7,1197.9,362.6,1196.2,363z"/>
			</g>
			<g>
				<polygon fill="#FFEC84" points="1168.2,330 1180,352.7 1185.4,351.5 1179.8,327.3 				"/>
			</g>
			<g>
				<polygon fill="#FFEC84" points="1193.6,349.6 1194.3,324 1182.7,326.7 1188.2,350.8 				"/>
			</g>
			<g>
				<path fill="#2D2C2E" d="M1182.2,324.7l-2.8,0.7l-14.1,3.2L1179,355l6.9-1.6l2.8-0.7l6.9-1.6l0.8-29.7L1182.2,324.7z M1180,352.7
					l-11.8-22.7l11.6-2.7l5.5,24.2L1180,352.7z M1193.6,349.6l-5.4,1.2l-5.5-24.2l11.6-2.7L1193.6,349.6z"/>
			</g>
			<g>
				<path fill="#414042" d="M1198.3,318.9c0.3,1.1-0.4,2.3-1.6,2.5l-31.8,7.3c-1.1,0.3-2.3-0.4-2.5-1.6l0,0
					c-0.3-1.1,0.4-2.3,1.6-2.5l31.8-7.3C1196.9,317,1198,317.7,1198.3,318.9L1198.3,318.9z"/>
			</g>
			<g>
				<path fill="#414042" d="M1178.8,306.7l-0.7-2.9l-4.2,1l0.7,2.9c0.7-0.3,1.3-0.5,2-0.6C1177.4,306.9,1178.1,306.8,1178.8,306.7z"
					/>
			</g>
			<g>
				<path fill="#323133" d="M1178.8,306.7c-0.7,0.1-1.4,0.1-2.1,0.3c-0.7,0.2-1.4,0.4-2,0.6c-6.5,2.5-10.4,9.5-9,16.5l28.5-6.5
					C1192.3,310.7,1185.8,306.2,1178.8,306.7z"/>
			</g>
			<g>
				
					<rect x="1136.6" y="435.6" transform="matrix(-0.2237 -0.9747 0.9747 -0.2237 1048.2659 1711.1847)" fill="#373638" width="138.1" height="5"/>
			</g>
			<g>
				
					<rect x="1208" y="368.3" transform="matrix(0.9747 -0.2236 0.2236 0.9747 -67.1627 281.3958)" fill="#2D2C2E" width="2.2" height="138.1"/>
			</g>
			<g>
				<g>
					<path fill="#373638" d="M1180.6,354.6c2.2,4.7,3.3,8.8,3.9,11.1l7.9-1.8c-0.4-2-1.2-6.3-1.3-11.7L1180.6,354.6z"/>
				</g>
				<g>
					<path fill="#2D2C2E" d="M1193.9,351.6l-2.9,0.7c0.1,5.4,0.9,9.6,1.3,11.7l3-0.7C1194.7,360.9,1194,356.8,1193.9,351.6z"/>
				</g>
			</g>
		</g>
	</g>
	<g>
		<g>
			<path fill="#FFFFFF" d="M507.4,516.3c-1.2,7.8-13.5,12.5-27.5,10.4c-14-2.1-24.5-10.1-23.3-17.9c1.2-7.8,13.5-12.5,27.5-10.4
				C498.1,500.5,508.5,508.5,507.4,516.3z"/>
		</g>
		<g>
			<path fill="#D6D6D6" d="M501.1,513.6c-0.6,3.7-9.4,5.4-19.9,3.8c-10.4-1.6-18.4-5.8-17.9-9.4c0.5-3.7,9.4-5.4,19.9-3.8
				C493.7,505.7,501.7,509.9,501.1,513.6z"/>
		</g>
		<g>
			<g>
				
					<rect x="470.8" y="506.4" transform="matrix(0.9859 0.1675 -0.1675 0.9859 92.1351 -73.6012)" fill="#414042" width="23.3" height="6.1"/>
			</g>
			<g>
				<path fill="#414042" d="M512.9,368.4l-1-0.2l-10.7-1.8l-1-0.2c-1.7-0.3-3.2,0.8-3.5,2.5c-0.3,1.7,0.8,3.2,2.5,3.5l12.6,2.1
					c1.7,0.3,3.3-0.8,3.5-2.5C515.7,370.2,514.6,368.6,512.9,368.4z"/>
			</g>
			<g>
				<polygon fill="#FFEC84" points="500,328 502.1,353 507.4,353.9 511.5,329.9 				"/>
			</g>
			<g>
				<polygon fill="#FFEC84" points="515.6,355.2 525.8,332.4 514.3,330.4 510.2,354.3 				"/>
			</g>
			<g>
				<path fill="#2D2C2E" d="M514.6,328.5l-2.8-0.5l-14-2.4l2.5,29l6.8,1.2l2.8,0.5l6.8,1.2l11.9-26.6L514.6,328.5z M502.1,353
					l-2.1-25l11.5,1.9l-4.1,23.9L502.1,353z M515.6,355.2l-5.3-0.9l4.1-23.9l11.5,1.9L515.6,355.2z"/>
			</g>
			<g>
				<path fill="#414042" d="M531.3,329.2c-0.2,1.1-1.3,1.9-2.4,1.7l-31.5-5.3c-1.1-0.2-1.9-1.3-1.7-2.4l0,0c0.2-1.1,1.3-1.9,2.4-1.7
					l31.5,5.3C530.8,327,531.5,328.1,531.3,329.2L531.3,329.2z"/>
			</g>
			<g>
				<path fill="#414042" d="M518.3,311l0.5-2.9l-4.1-0.7l-0.5,2.9c0.7,0,1.4,0.1,2.1,0.2C516.9,310.6,517.6,310.8,518.3,311z"/>
			</g>
			<g>
				<path fill="#323133" d="M518.3,311c-0.7-0.2-1.3-0.4-2-0.5c-0.7-0.1-1.4-0.2-2.1-0.2c-6.9-0.2-13,4.6-14.4,11.5l28.2,4.8
					C529,319.6,524.8,313.1,518.3,311z"/>
			</g>
			<g>
				
					<rect x="425.7" y="437.3" transform="matrix(0.1673 -0.9859 0.9859 0.1673 -22.8013 852.4363)" fill="#373638" width="135.1" height="4.9"/>
			</g>
			<g>
				<polygon fill="#2D2C2E" points="509,373.9 506.9,373.5 484.3,506.7 486.5,507.1 				"/>
			</g>
			<g>
				<g>
					<path fill="#373638" d="M501.9,354.9c0.2,5.1-0.3,9.2-0.7,11.5l7.8,1.3c0.4-2,1.3-6.1,3.2-11L501.9,354.9z"/>
				</g>
				<g>
					<path fill="#2D2C2E" d="M515.1,357.1l-2.9-0.5c-1.9,4.9-2.8,9-3.2,11l2.9,0.5C512.4,365.9,513.2,361.9,515.1,357.1z"/>
				</g>
			</g>
		</g>
	</g>
	<g>
		<g>
			<polygon fill="#EBC697" points="1289.1,821 1291.5,782.6 1294,782.8 1367.2,787.2 1364.6,829.7 1291.4,825.3 1288.9,825.1 
				1288.9,825.1 			"/>
		</g>
		<g>
			
				<rect x="1302.4" y="794.6" transform="matrix(-0.9982 -6.071161e-002 6.071161e-002 -0.9982 2606.0063 1689.0134)" fill="#DBB88C" width="52.6" height="20.6"/>
		</g>
		<g>
			
				<rect x="1291.2" y="827.4" transform="matrix(-0.9982 -6.071304e-002 6.071304e-002 -0.9982 2600.2676 1739.7804)" fill="#666042" width="70.7" height="5.9"/>
		</g>
		<g>
			
				<rect x="1242.5" y="823.8" transform="matrix(-0.9982 -6.071446e-002 6.071446e-002 -0.9982 2481.3101 1728.9138)" fill="#7A724F" width="48.8" height="5.9"/>
		</g>
		<g>
			<polygon fill="#CC6459" points="1267.7,741.1 1270.1,745 1243.3,779.7 1239.2,779.4 1239.3,778 			"/>
		</g>
		<g>
			<polygon fill="#FFD8A4" points="1270.1,745 1291.6,781.2 1291.5,782.6 1289.4,817.3 1288.9,825.1 1288.9,825.1 1240.8,822.2 
				1240.8,822.1 1243.3,779.7 			"/>
		</g>
		<g>
			<g>
				<polygon fill="#FF7C6E" points="1348.9,746 1372.7,786.1 1291.6,781.2 1270.1,745 1267.7,741.1 				"/>
			</g>
			<g>
				<polygon fill="#CC6459" points="1373,786.6 1373,787.6 1320,784.3 1294,782.8 1291.5,782.6 1291.6,781.2 1372.7,786.1 				"/>
			</g>
		</g>
		<g>
			
				<rect x="1303.3" y="793.8" transform="matrix(-0.9982 -6.072779e-002 6.072779e-002 -0.9982 2607.8262 1687.4971)" fill="#FFFFFF" width="52.6" height="20.6"/>
		</g>
		<g>
			
				<rect x="1256.5" y="799.1" transform="matrix(-0.9982 -6.067972e-002 6.067972e-002 -0.9982 2478.4185 1697.9458)" fill="#FFFFFF" width="16.9" height="24.5"/>
		</g>
		<g>
			
				<rect x="1291.6" y="732.5" transform="matrix(-0.9982 -6.074207e-002 6.074207e-002 -0.9982 2543.9619 1552.6233)" fill="#E6E7E8" width="7.9" height="10.3"/>
		</g>
		<g>
			
				<rect x="1288.5" y="732.2" transform="matrix(-0.9982 -6.065306e-002 6.065306e-002 -0.9982 2533.0396 1551.5122)" fill="#C8C8C9" width="3.2" height="10.3"/>
		</g>
		<g>
			<circle fill="#FFFFFF" cx="1268.3" cy="774.7" r="7.9"/>
		</g>
		<g>
			<path fill="#9EDAF0" d="M1263.2,774.4c0.2-2.8,2.6-4.9,5.4-4.8c1.7,0.1,3.1,1,4,2.4c-0.8-0.8-1.9-1.3-3.1-1.3
				c-2.8-0.2-5.2,2-5.4,4.8c-0.1,1.1,0.2,2.1,0.8,3C1263.8,777.4,1263.1,776,1263.2,774.4z"/>
		</g>
		<g>
			<path fill="#A8E9FF" d="M1269.5,770.6c1.2,0.1,2.3,0.6,3.1,1.3c0.6,0.9,0.8,1.9,0.8,3c-0.2,2.8-2.6,4.9-5.4,4.8
				c-1.2-0.1-2.3-0.6-3.1-1.3c-0.6-0.9-0.8-1.9-0.8-3C1264.2,772.6,1266.7,770.5,1269.5,770.6z"/>
		</g>
		<g>
			<polygon fill="#CC625A" points="1260.1,802 1270.9,802.7 1270.9,804.2 1261.4,803.6 1260.2,823.4 1258.8,823.3 			"/>
		</g>
		<g>
			
				<rect x="1255.6" y="809.1" transform="matrix(6.063776e-002 -0.9982 0.9982 6.063776e-002 376.5275 2027.6521)" fill="#E66D64" width="19.8" height="9.4"/>
		</g>
		<g>
			<polygon fill="#9EDAF0" points="1339.3,799.2 1339.4,797.5 1353,798.3 1352.1,812.7 1350.5,812.6 1351.3,800 			"/>
		</g>
		<g>
			<polygon fill="#9EDAF0" points="1323.1,798.3 1323.2,796.5 1336.8,797.3 1335.9,811.7 1334.3,811.6 1335.1,799 			"/>
		</g>
		<g>
			<polygon fill="#9EDAF0" points="1306.9,797.3 1307,795.5 1320.6,796.4 1319.7,810.7 1318.1,810.7 1318.9,798 			"/>
		</g>
		<g>
			
				<rect x="1338.9" y="799.6" transform="matrix(-0.9982 -6.069162e-002 6.069162e-002 -0.9982 2638.3975 1692.0054)" fill="#A8E9FF" width="12" height="12.7"/>
		</g>
		<g>
			<polygon fill="#A8E9FF" points="1323.1,798.3 1335.1,799 1334.3,811.6 1322.3,810.9 			"/>
		</g>
		<g>
			
				<rect x="1306.5" y="797.6" transform="matrix(-0.9982 -6.069638e-002 6.069638e-002 -0.9982 2573.7568 1686.1116)" fill="#A8E9FF" width="12" height="12.7"/>
		</g>
		<g>
			<polygon fill="#AAAAAB" points="1267.7,827.7 1267.8,825.8 1269.7,825.9 1269.8,823.9 1271.9,824 1271.6,830 1265.7,829.6 
				1265.8,827.6 			"/>
		</g>
		<g>
			<polygon fill="#D2D3D4" points="1255.4,825 1257.3,825.1 1267.8,825.8 1267.7,827.7 1265.8,827.6 1255.3,826.9 			"/>
		</g>
		<g>
			<polygon fill="#E6E7E8" points="1257.4,823.2 1269.8,823.9 1269.7,825.9 1267.8,825.8 1257.3,825.1 			"/>
		</g>
		<g>
			<polygon fill="#E6E7E8" points="1265.8,827.6 1265.7,829.6 1253.3,828.9 1253.4,826.8 1255.3,826.9 			"/>
		</g>
		<g>
			
				<rect x="1345.1" y="797.6" transform="matrix(-0.998 -6.393138e-002 6.393138e-002 -0.998 2637.2959 1694.5974)" fill="#FFFFFF" width="1.3" height="14.9"/>
		</g>
		<g>
			
				<rect x="1345.1" y="797.6" transform="matrix(-6.403108e-002 0.9979 -0.9979 -6.403108e-002 2235.3833 -486.3348)" fill="#FFFFFF" width="1.3" height="14.9"/>
		</g>
		<g>
			
				<rect x="1328.9" y="796.7" transform="matrix(-0.998 -6.295893e-002 6.295893e-002 -0.998 2605.8521 1690.3535)" fill="#FFFFFF" width="1.3" height="14.9"/>
		</g>
		<g>
			
				<rect x="1328.9" y="796.7" transform="matrix(-6.009453e-002 0.9982 -0.9982 -6.009453e-002 2212.125 -474.7087)" fill="#FFFFFF" width="1.3" height="14.9"/>
		</g>
		<g>
			<polygon fill="#FFFFFF" points="1312.3,810.5 1313.5,810.6 1314.4,795.7 1313.2,795.6 			"/>
		</g>
		<g>
			
				<rect x="1312.7" y="795.7" transform="matrix(-6.145803e-002 0.9981 -0.9981 -6.145803e-002 2195.6921 -458.3759)" fill="#FFFFFF" width="1.3" height="14.9"/>
		</g>
		<g>
			<path fill="#EBD288" d="M1267.3,812.1c-0.1,0.2-0.2,0.4-0.2,0.7c0,0.7,0.5,1.3,1.2,1.3c0.2,0,0.5,0,0.7-0.2
				c-0.2,0.3-0.6,0.5-1.1,0.5c-0.7,0-1.2-0.6-1.2-1.3C1266.7,812.7,1266.9,812.3,1267.3,812.1z"/>
		</g>
		<g>
			<path fill="#FFE594" d="M1267,812.8c0-0.3,0.1-0.5,0.2-0.7c0.2-0.1,0.4-0.2,0.7-0.2c0.7,0,1.2,0.6,1.2,1.3c0,0.2-0.1,0.5-0.2,0.7
				c-0.2,0.1-0.4,0.2-0.7,0.2C1267.5,814,1267,813.5,1267,812.8z"/>
		</g>
		<g>
			<g>
				<path fill="#88B0BF" d="M1263.8,794c0.1-1,0.9-1.7,1.9-1.6l2.5,0.2c1,0.1,1.7,0.9,1.6,1.9c0,0.3-0.1,0.6-0.3,0.8l-5.6-0.3
					C1263.8,794.6,1263.8,794.3,1263.8,794z"/>
			</g>
			<g>
				<path fill="#7698A6" d="M1269.6,795.2c-0.3,0.5-0.9,0.9-1.6,0.8l-2.5-0.2c-0.7,0-1.2-0.5-1.5-1L1269.6,795.2z"/>
			</g>
		</g>
		<g>
			<polygon fill="#FFFFFF" points="1266.4,789.1 1267.9,789.2 1267.7,792.5 1266.2,792.4 			"/>
		</g>
		<g>
			<polygon fill="#C8C8C9" points="1295.7,736.4 1299.6,736.7 1299.7,735 1295.8,734.8 			"/>
		</g>
		<g>
			<polygon fill="#C8C8C9" points="1291.5,739.6 1295.5,739.8 1295.5,738.2 1291.6,737.9 			"/>
		</g>
		<g>
			<g>
				<path fill="#C8C8C9" d="M1289,728.3l11.1,0.7c1.1,0.1,1.8,1,1.8,2c0,0.2-0.1,0.5-0.2,0.7l-14.6-2.1
					C1287.4,728.8,1288.1,728.3,1289,728.3z"/>
			</g>
			<g>
				<path fill="#AAAAAB" d="M1301.7,731.6c-0.3,0.7-1,1.2-1.8,1.1l-11.1-0.7c-1-0.1-1.8-1-1.8-2c0-0.2,0.1-0.4,0.1-0.6L1301.7,731.6
					z"/>
			</g>
		</g>
		<g>
			<path fill="#F5776A" d="M1326.8,751.9c-0.1,1,0.7,1.9,1.8,2l14.5,0.9c1,0.1,1.9-0.7,2-1.8l0,0c0.1-1-0.7-1.9-1.8-2l-14.5-0.9
				C1327.8,750.1,1326.9,750.9,1326.8,751.9L1326.8,751.9z"/>
		</g>
		<g>
			<path fill="#F5776A" d="M1293.3,759.8c-0.1,1,0.7,1.9,1.8,2l25.6,1.6c1,0.1,2-0.7,2-1.8l0,0c0.1-1-0.7-1.9-1.8-2l-25.6-1.6
				C1294.2,758,1293.3,758.8,1293.3,759.8L1293.3,759.8z"/>
		</g>
		<g>
			<path fill="#F5776A" d="M1315.7,751.2c-0.1,1,0.7,1.9,1.8,2l3.1,0.2c1,0.1,1.9-0.7,2-1.8l0,0c0.1-1-0.7-1.9-1.8-2l-3.1-0.2
				C1316.7,749.4,1315.8,750.2,1315.7,751.2L1315.7,751.2z"/>
		</g>
	</g>
	<g>
		<g>
			<g>
				<polygon fill="#EBC697" points="479.4,863 480.3,837.6 478.6,837.5 430.1,835.7 429,863.9 477.6,865.7 479.3,865.8 479.3,865.7 
									"/>
			</g>
			<g>
				<polygon fill="#DBB88C" points="471.5,857.3 436.7,856 437.2,842.4 472,843.7 				"/>
			</g>
			<g>
				
					<rect x="430.7" y="864.8" transform="matrix(0.9993 3.780088e-002 -3.780088e-002 0.9993 33.0894 -16.5455)" fill="#666042" width="46.9" height="3.9"/>
			</g>
			<g>
				
					<rect x="477.5" y="866.3" transform="matrix(0.9993 3.773349e-002 -3.773349e-002 0.9993 33.1144 -18.009)" fill="#7A724F" width="32.3" height="3.9"/>
			</g>
			<g>
				<polygon fill="#CC6459" points="498.7,811.7 496.9,814.2 512.3,838.8 515,838.9 515.1,837.9 				"/>
			</g>
			<g>
				<polygon fill="#FFD8A4" points="496.9,814.2 480.4,836.6 480.3,837.6 479.5,860.6 479.3,865.7 479.3,865.8 511.2,867 
					511.2,866.9 512.3,838.8 				"/>
			</g>
			<g>
				<g>
					<polygon fill="#FF7C6E" points="444.9,809.7 426.5,834.6 480.4,836.6 496.9,814.2 498.7,811.7 					"/>
				</g>
				<g>
					<polygon fill="#CC6459" points="426.3,834.9 426.3,835.5 461.4,836.8 478.6,837.5 480.3,837.6 480.4,836.6 426.5,834.6 					
						"/>
				</g>
			</g>
			<g>
				
					<rect x="436.4" y="842.4" transform="matrix(0.9993 3.776712e-002 -3.776712e-002 0.9993 32.3979 -16.5339)" fill="#FFFFFF" width="34.8" height="13.7"/>
			</g>
			<g>
				<polygon fill="#FFFFFF" points="501.8,850.3 490.6,849.9 490,866.1 501.2,866.6 				"/>
			</g>
			<g>
				
					<rect x="478" y="804.2" transform="matrix(0.9993 3.852290e-002 -3.852290e-002 0.9993 31.4694 -17.9133)" fill="#E6E7E8" width="5.2" height="6.8"/>
			</g>
			<g>
				<polygon fill="#C8C8C9" points="485.1,811.2 483,811.2 483.3,804.3 485.4,804.4 				"/>
			</g>
			<g>
				<path fill="#FFFFFF" d="M501.3,834c-0.1,2.9-2.5,5.1-5.4,5c-2.9-0.1-5.1-2.5-5-5.4c0.1-2.9,2.5-5.1,5.4-5
					C499.2,828.7,501.5,831.2,501.3,834z"/>
			</g>
			<g>
				<path fill="#9EDAF0" d="M499.5,834c0.1-1.9-1.4-3.4-3.2-3.5c-1.1,0-2.1,0.5-2.8,1.3c0.6-0.4,1.3-0.7,2.1-0.7
					c1.9,0.1,3.3,1.6,3.2,3.5c0,0.7-0.3,1.4-0.7,1.9C499,835.9,499.5,835,499.5,834z"/>
			</g>
			<g>
				<path fill="#A8E9FF" d="M495.6,831.1c-0.8,0-1.5,0.2-2.1,0.7c-0.4,0.5-0.7,1.2-0.7,1.9c-0.1,1.9,1.4,3.4,3.2,3.5
					c0.8,0,1.5-0.2,2.1-0.7c0.4-0.5,0.7-1.2,0.7-1.9C499,832.7,497.5,831.2,495.6,831.1z"/>
			</g>
			<g>
				<polygon fill="#CC625A" points="499.8,852.4 492.6,852.1 492.5,853.1 498.8,853.3 498.3,866.5 499.2,866.5 				"/>
			</g>
			<g>
				<polygon fill="#E66D64" points="492.5,853.1 492,866.2 498.3,866.5 498.8,853.3 				"/>
			</g>
			<g>
				<polygon fill="#9EDAF0" points="447.7,845.4 447.8,844.2 438.7,843.9 438.4,853.5 439.5,853.5 439.8,845.1 				"/>
			</g>
			<g>
				<polygon fill="#9EDAF0" points="458.5,845.8 458.5,844.7 449.5,844.3 449.1,853.9 450.2,853.9 450.5,845.5 				"/>
			</g>
			<g>
				<polygon fill="#9EDAF0" points="469.2,846.2 469.3,845.1 460.2,844.7 459.9,854.3 461,854.3 461.3,845.9 				"/>
			</g>
			<g>
				
					<rect x="439.6" y="845.3" transform="matrix(0.9993 3.794268e-002 -3.794268e-002 0.9993 32.55 -16.2195)" fill="#A8E9FF" width="8" height="8.4"/>
			</g>
			<g>
				<polygon fill="#A8E9FF" points="458.5,845.8 450.5,845.5 450.2,853.9 458.2,854.2 				"/>
			</g>
			<g>
				<polygon fill="#A8E9FF" points="469.2,846.2 461.3,845.9 461,854.3 468.9,854.6 				"/>
			</g>
			<g>
				<polygon fill="#AAAAAB" points="493.1,868.8 493.2,867.5 491.9,867.5 491.9,866.2 490.5,866.1 490.4,870.1 494.3,870.3 
					494.4,868.9 				"/>
			</g>
			<g>
				<polygon fill="#D2D3D4" points="501.4,867.9 500.1,867.8 493.2,867.5 493.1,868.8 494.4,868.9 501.3,869.1 				"/>
			</g>
			<g>
				<polygon fill="#E6E7E8" points="500.1,866.5 491.9,866.2 491.9,867.5 493.2,867.5 500.1,867.8 				"/>
			</g>
			<g>
				<polygon fill="#E6E7E8" points="494.4,868.9 494.3,870.3 502.5,870.6 502.6,869.2 501.3,869.1 				"/>
			</g>
			<g>
				
					<rect x="442.7" y="843.9" transform="matrix(0.9993 3.642496e-002 -3.642496e-002 0.9993 31.2135 -15.5758)" fill="#FFFFFF" width="0.8" height="9.9"/>
			</g>
			<g>
				<polygon fill="#FFFFFF" points="438.1,849.1 438.2,848.3 448,848.6 448,849.5 				"/>
			</g>
			<g>
				
					<rect x="453.4" y="844.3" transform="matrix(0.9992 3.973468e-002 -3.973468e-002 0.9992 34.1036 -17.3621)" fill="#FFFFFF" width="0.8" height="9.9"/>
			</g>
			<g>
				
					<rect x="453.4" y="844.3" transform="matrix(-3.933504e-002 0.9992 -0.9992 -3.933504e-002 1320.2861 429.1924)" fill="#FFFFFF" width="0.8" height="9.9"/>
			</g>
			<g>
				
					<rect x="464.2" y="844.7" transform="matrix(0.9992 3.994458e-002 -3.994458e-002 0.9992 34.3104 -17.8794)" fill="#FFFFFF" width="0.8" height="9.9"/>
			</g>
			<g>
				
					<rect x="464.2" y="844.7" transform="matrix(-3.874874e-002 0.9992 -0.9992 -3.874874e-002 1331.6088 418.3623)" fill="#FFFFFF" width="0.8" height="9.9"/>
			</g>
			<g>
				<path fill="#EBD288" d="M494.4,858.6c0.1,0.1,0.1,0.3,0.1,0.5c0,0.5-0.4,0.8-0.9,0.8c-0.2,0-0.3-0.1-0.4-0.1
					c0.1,0.2,0.4,0.4,0.7,0.4c0.5,0,0.8-0.3,0.9-0.8C494.7,859,494.6,858.7,494.4,858.6z"/>
			</g>
			<g>
				<path fill="#FFE594" d="M494.5,859c0-0.2,0-0.3-0.1-0.5c-0.1-0.1-0.3-0.1-0.4-0.1c-0.5,0-0.8,0.3-0.9,0.8c0,0.2,0,0.3,0.1,0.5
					c0.1,0.1,0.3,0.1,0.4,0.1C494.1,859.8,494.5,859.5,494.5,859z"/>
			</g>
			<g>
				<g>
					<path fill="#88B0BF" d="M497.9,846.9c0-0.6-0.5-1.2-1.1-1.2l-1.7-0.1c-0.6,0-1.2,0.5-1.2,1.1c0,0.2,0,0.4,0.1,0.5l3.7,0.1
						C497.8,847.2,497.8,847.1,497.9,846.9z"/>
				</g>
				<g>
					<path fill="#7698A6" d="M494,847.3c0.2,0.4,0.6,0.6,1,0.7l1.7,0.1c0.4,0,0.8-0.2,1-0.6L494,847.3z"/>
				</g>
			</g>
			<g>
				<polygon fill="#FFFFFF" points="496.5,843.5 495.5,843.5 495.4,845.6 496.4,845.6 				"/>
			</g>
			<g>
				<polygon fill="#C8C8C9" points="480.6,806.8 478,806.7 478,805.6 480.6,805.7 				"/>
			</g>
			<g>
				<polygon fill="#C8C8C9" points="483.1,809.2 480.5,809.1 480.6,808 483.2,808.1 				"/>
			</g>
			<g>
				<g>
					<path fill="#C8C8C9" d="M485.5,801.9l-7.4-0.3c-0.7,0-1.3,0.5-1.3,1.2c0,0.2,0,0.3,0.1,0.4l9.8-0.4
						C486.5,802.3,486.1,801.9,485.5,801.9z"/>
				</g>
				<g>
					<path fill="#AAAAAB" d="M476.9,803.3c0.2,0.5,0.6,0.8,1.1,0.9l7.4,0.3c0.7,0,1.3-0.5,1.3-1.2c0-0.1,0-0.3-0.1-0.4L476.9,803.3z
						"/>
				</g>
			</g>
			<g>
				<path fill="#F5776A" d="M459,815c0,0.7-0.6,1.2-1.3,1.2l-9.6-0.4c-0.7,0-1.2-0.6-1.2-1.3l0,0c0-0.7,0.6-1.2,1.3-1.2l9.6,0.4
					C458.5,813.7,459.1,814.3,459,815L459,815z"/>
			</g>
			<g>
				<path fill="#F5776A" d="M480.6,822.4c0,0.7-0.6,1.2-1.3,1.2l-17-0.6c-0.7,0-1.2-0.6-1.2-1.3l0,0c0-0.7,0.6-1.2,1.3-1.2l17,0.6
					C480.1,821.2,480.7,821.7,480.6,822.4L480.6,822.4z"/>
			</g>
			<g>
				<path fill="#F5776A" d="M466.4,815.3c0,0.7-0.6,1.2-1.3,1.2l-2.1-0.1c-0.7,0-1.2-0.6-1.2-1.3l0,0c0-0.7,0.6-1.2,1.3-1.2l2.1,0.1
					C465.9,814,466.4,814.6,466.4,815.3L466.4,815.3z"/>
			</g>
		</g>
		<g>
			<g>
				<polygon fill="#EBC697" points="439.9,861.5 440.9,836 439.2,836 390.6,834.2 389.6,862.4 438.1,864.2 439.8,864.3 439.8,864.2 
									"/>
			</g>
			<g>
				
					<rect x="397.5" y="841.5" transform="matrix(0.9993 3.787858e-002 -3.787858e-002 0.9993 32.4314 -15.1078)" fill="#DBB88C" width="34.8" height="13.7"/>
			</g>
			<g>
				
					<rect x="391.2" y="863.3" transform="matrix(0.9993 3.769723e-002 -3.769723e-002 0.9993 32.9127 -15.016)" fill="#666042" width="46.9" height="3.9"/>
			</g>
			<g>
				
					<rect x="438" y="864.8" transform="matrix(0.9993 3.788318e-002 -3.788318e-002 0.9993 33.1616 -16.5848)" fill="#7A724F" width="32.3" height="3.9"/>
			</g>
			<g>
				<polygon fill="#CC6459" points="459.3,810.2 457.4,812.7 472.8,837.3 475.6,837.4 475.6,836.4 				"/>
			</g>
			<g>
				<polygon fill="#FFD8A4" points="457.4,812.7 440.9,835.1 440.9,836 440,859.1 439.8,864.2 439.8,864.3 471.8,865.5 471.8,865.4 
					472.8,837.3 				"/>
			</g>
			<g>
				<g>
					<polygon fill="#FF7C6E" points="405.4,808.2 387.1,833.1 440.9,835.1 457.4,812.7 459.3,810.2 					"/>
				</g>
				<g>
					<polygon fill="#CC6459" points="386.9,833.4 386.8,834 422,835.3 439.2,836 440.9,836 440.9,835.1 387.1,833.1 					"/>
				</g>
			</g>
			<g>
				
					<rect x="397" y="840.9" transform="matrix(0.9993 3.776289e-002 -3.776289e-002 0.9993 32.309 -15.0437)" fill="#FFFFFF" width="34.8" height="13.7"/>
			</g>
			<g>
				<polygon fill="#FFFFFF" points="462.4,848.8 451.2,848.4 450.6,864.6 461.8,865 				"/>
			</g>
			<g>
				
					<rect x="438.5" y="802.7" transform="matrix(0.9993 3.780421e-002 -3.780421e-002 0.9993 30.7905 -16.1)" fill="#E6E7E8" width="5.2" height="6.8"/>
			</g>
			<g>
				<polygon fill="#C8C8C9" points="445.7,809.7 443.6,809.6 443.9,802.8 446,802.9 				"/>
			</g>
			<g>
				<path fill="#FFFFFF" d="M461.9,832.5c-0.1,2.9-2.5,5.1-5.4,5c-2.9-0.1-5.1-2.5-5-5.4c0.1-2.9,2.5-5.1,5.4-5
					C459.8,827.2,462,829.7,461.9,832.5z"/>
			</g>
			<g>
				<path fill="#9EDAF0" d="M460.1,832.5c0.1-1.9-1.4-3.4-3.2-3.5c-1.1,0-2.1,0.5-2.8,1.3c0.6-0.4,1.3-0.7,2.1-0.7
					c1.9,0.1,3.3,1.6,3.2,3.5c0,0.7-0.3,1.4-0.7,1.9C459.5,834.4,460,833.5,460.1,832.5z"/>
			</g>
			<g>
				<path fill="#A8E9FF" d="M456.2,829.6c-0.8,0-1.5,0.2-2.1,0.7c-0.4,0.5-0.7,1.2-0.7,1.9c-0.1,1.9,1.4,3.4,3.2,3.5
					c0.8,0,1.5-0.2,2.2-0.7c0.4-0.5,0.7-1.2,0.7-1.9C459.5,831.2,458.1,829.7,456.2,829.6z"/>
			</g>
			<g>
				<polygon fill="#CC625A" points="460.3,850.9 453.1,850.6 453.1,851.6 459.3,851.8 458.8,865 459.8,865 				"/>
			</g>
			<g>
				
					<rect x="449.4" y="855.2" transform="matrix(3.739482e-002 -0.9993 0.9993 3.739482e-002 -418.7788 1281.834)" fill="#E66D64" width="13.1" height="6.3"/>
			</g>
			<g>
				<polygon fill="#9EDAF0" points="408.3,843.9 408.3,842.7 399.3,842.4 398.9,851.9 400,852 400.3,843.6 				"/>
			</g>
			<g>
				<polygon fill="#9EDAF0" points="419,844.3 419.1,843.1 410.1,842.8 409.7,852.4 410.8,852.4 411.1,844 				"/>
			</g>
			<g>
				<polygon fill="#9EDAF0" points="429.8,844.7 429.8,843.6 420.8,843.2 420.4,852.8 421.5,852.8 421.8,844.4 				"/>
			</g>
			<g>
				
					<rect x="400.2" y="843.7" transform="matrix(0.9993 3.806762e-002 -3.806762e-002 0.9993 32.5722 -14.7705)" fill="#A8E9FF" width="8" height="8.4"/>
			</g>
			<g>
				
					<rect x="410.9" y="844.2" transform="matrix(0.9993 3.759328e-002 -3.759328e-002 0.9993 32.1855 -14.9978)" fill="#A8E9FF" width="7.9" height="8.4"/>
			</g>
			<g>
				
					<rect x="421.7" y="844.6" transform="matrix(0.9993 3.757713e-002 -3.757713e-002 0.9993 32.1945 -15.3953)" fill="#A8E9FF" width="8" height="8.4"/>
			</g>
			<g>
				<polygon fill="#AAAAAB" points="453.7,867.3 453.7,866 452.4,866 452.5,864.7 451.1,864.6 450.9,868.6 454.9,868.7 454.9,867.4 
									"/>
			</g>
			<g>
				<polygon fill="#D2D3D4" points="461.9,866.3 460.7,866.3 453.7,866 453.7,867.3 454.9,867.4 461.9,867.6 				"/>
			</g>
			<g>
				<polygon fill="#E6E7E8" points="460.7,865 452.5,864.7 452.4,866 453.7,866 460.7,866.3 				"/>
			</g>
			<g>
				<polygon fill="#E6E7E8" points="454.9,867.4 454.9,868.7 463.1,869.1 463.1,867.7 461.9,867.6 				"/>
			</g>
			<g>
				<polygon fill="#FFFFFF" points="403.9,852.3 403,852.3 403.4,842.4 404.2,842.4 				"/>
			</g>
			<g>
				
					<rect x="403.2" y="842.4" transform="matrix(-3.535527e-002 0.9994 -0.9994 -3.535527e-002 1264.7251 473.9168)" fill="#FFFFFF" width="0.8" height="9.9"/>
			</g>
			<g>
				
					<rect x="414" y="842.8" transform="matrix(0.9994 3.506614e-002 -3.506614e-002 0.9994 29.9821 -14.0095)" fill="#FFFFFF" width="0.8" height="9.9"/>
			</g>
			<g>
				
					<rect x="414" y="842.8" transform="matrix(-3.523078e-002 0.9994 -0.9994 -3.523078e-002 1276.2087 463.4921)" fill="#FFFFFF" width="0.8" height="9.9"/>
			</g>
			<g>
				
					<rect x="424.7" y="843.2" transform="matrix(0.9993 3.625468e-002 -3.625468e-002 0.9993 31.0292 -14.8555)" fill="#FFFFFF" width="0.8" height="9.9"/>
			</g>
			<g>
				
					<rect x="424.7" y="843.2" transform="matrix(-3.928894e-002 0.9992 -0.9992 -3.928894e-002 1289.3337 456.681)" fill="#FFFFFF" width="0.8" height="9.9"/>
			</g>
			<g>
				<path fill="#EBD288" d="M454.9,857.1c0.1,0.1,0.1,0.3,0.1,0.5c0,0.5-0.4,0.8-0.9,0.8c-0.2,0-0.3-0.1-0.4-0.1
					c0.1,0.2,0.4,0.4,0.7,0.4c0.5,0,0.8-0.3,0.9-0.8C455.3,857.5,455.1,857.2,454.9,857.1z"/>
			</g>
			<g>
				<path fill="#FFE594" d="M455,857.5c0-0.2,0-0.3-0.1-0.5c-0.1-0.1-0.3-0.1-0.4-0.2c-0.5,0-0.8,0.3-0.9,0.8c0,0.2,0,0.3,0.1,0.5
					c0.1,0.1,0.3,0.1,0.4,0.1C454.6,858.3,455,858,455,857.5z"/>
			</g>
			<g>
				<g>
					<path fill="#88B0BF" d="M458.4,845.3c0-0.6-0.5-1.2-1.1-1.2l-1.7-0.1c-0.6,0-1.2,0.5-1.2,1.1c0,0.2,0,0.4,0.1,0.6l3.7,0.1
						C458.3,845.7,458.4,845.5,458.4,845.3z"/>
				</g>
				<g>
					<path fill="#7698A6" d="M454.5,845.7c0.2,0.4,0.6,0.6,1,0.7l1.7,0.1c0.4,0,0.8-0.2,1-0.6L454.5,845.7z"/>
				</g>
			</g>
			<g>
				<polygon fill="#FFFFFF" points="457,842 456,842 455.9,844.1 457,844.1 				"/>
			</g>
			<g>
				
					<rect x="438.6" y="804.2" transform="matrix(0.9993 3.772308e-002 -3.772308e-002 0.9993 30.6701 -16.0204)" fill="#C8C8C9" width="2.6" height="1.1"/>
			</g>
			<g>
				<polygon fill="#C8C8C9" points="443.7,807.7 441.1,807.6 441.1,806.5 443.7,806.6 				"/>
			</g>
			<g>
				<g>
					<path fill="#C8C8C9" d="M446.1,800.4l-7.4-0.3c-0.7,0-1.3,0.5-1.3,1.2c0,0.2,0,0.3,0.1,0.4l9.7-0.4
						C447.1,800.8,446.6,800.4,446.1,800.4z"/>
				</g>
				<g>
					<path fill="#AAAAAB" d="M437.5,801.8c0.2,0.5,0.6,0.8,1.1,0.9l7.4,0.3c0.7,0,1.3-0.5,1.3-1.2c0-0.1,0-0.3,0-0.4L437.5,801.8z"
						/>
				</g>
			</g>
			<g>
				<path fill="#F5776A" d="M419.6,813.5c0,0.7-0.6,1.2-1.3,1.2l-9.6-0.4c-0.7,0-1.2-0.6-1.2-1.3l0,0c0-0.7,0.6-1.2,1.3-1.2l9.6,0.4
					C419.1,812.2,419.6,812.8,419.6,813.5L419.6,813.5z"/>
			</g>
			<g>
				<path fill="#F5776A" d="M441.2,820.9c0,0.7-0.6,1.2-1.3,1.2l-17-0.6c-0.7,0-1.2-0.6-1.2-1.3l0,0c0-0.7,0.6-1.2,1.3-1.2l17,0.6
					C440.7,819.6,441.2,820.2,441.2,820.9L441.2,820.9z"/>
			</g>
			<g>
				<path fill="#F5776A" d="M427,813.8c0,0.7-0.6,1.2-1.3,1.2l-2.1-0.1c-0.7,0-1.2-0.6-1.2-1.3l0,0c0-0.7,0.6-1.2,1.3-1.2l2.1,0.1
					C426.5,812.5,427,813.1,427,813.8L427,813.8z"/>
			</g>
		</g>
	</g>
	<g>
		<polygon fill="#F5776A" points="219.9,1190.9 292.4,1156.4 257.8,1228.9 255.4,1193.4 		"/>
	</g>
	<g>
		<path fill="#F5776A" d="M261.3,1242.6c-30.3,0-55-24.7-55-55s24.7-55,55-55s55,24.7,55,55S291.6,1242.6,261.3,1242.6z
			 M261.3,1136.4c-28.3,0-51.2,23-51.2,51.2s23,51.2,51.2,51.2s51.2-23,51.2-51.2S289.6,1136.4,261.3,1136.4z"/>
	</g>
</g>
</svg>
